PathFileType	4	(X/Y/Z)	C:/Users/beibeiliu/ov580/test_trc\sequence.13_training_dense_left.trc
DataRate	CameraRate	NumFrames	NumMarkers	Units	OrigDataRate	OrigDataStartFrame	OrigNumFrames
120	120	20	19	mm	120	27	53
Frame#	Time	ThumbCMC			ThumbMCP			ThumbIP			ThumbTip			IndexMCP			IndexPIP			IndexTip			MiddleMCP			MiddlePIP			MiddleTip			RingMCP			RingPIP			RingTip			PinkyMCP			PinkyPIP			PinkyTip			BackHand1			BackHand2			BackHand3	
		X0	Y0	Z0	X1	Y1	Z1	X2	Y2	Z2	X3	Y3	Z3	X4	Y4	Z4	X5	Y5	Z5	X6	Y6	Z6	X7	Y7	Z7	X8	Y8	Z8	X9	Y9	Z9	X10	Y10	Z10	X11	Y11	Z11	X12	Y12	Z12	X13	Y13	Z13	X14	Y14	Z14	X15	Y15	Z15	X16	Y16	Z16	X17	Y17	Z17	X18	Y18	Z18	
26	0.216667	-202.948	-3.50546	124.285	-185.864	17.7412	100.332	-167.672	16.7775	79.0572	-146.428	3.31802	73.2411	-193.475	-33.9521	59.9707	-178.979	-32.0821	33.7665	-164.624	-17.4634	15.82	-167.537	-50.3592	58.968	-159.106	-44.2551	32.5769	-142.23	-27.5146	11.7827	-151.778	-47.512	64.1952	-136.848	-26.3924	45.3064	-136.607	5.96513	55.9784	-133.615	-51.5989	85.9751	-123.022	-49.8569	62.2406	-109.399	-51.8262	43.2758	-164.161	-56.6487	115.296	-172.956	-58.0752	147.643	-198.31	-44.1501	122.283	
27	0.225	-213.122	-18.0678	126.674	-199.648	5.44768	101.398	-182.051	3.15179	73.256	-160.062	-11.5265	64.7109	-208.483	-52.3206	64.6689	-204.724	-49.7015	32.8513	-188.022	-42.5364	13.1994	-189.783	-67.2985	59.9697	-176.438	-67.6735	33.886	-164.296	-51.3613	6.10334	-166.397	-66.9756	68.8949	-153.055	-46.0217	45.4609	-150.061	-16.8899	52.1231	-148.907	-69.5813	87.3936	-141.9	-68.6801	66.7355	-128.582	-69.4205	42.2758	-182.916	-67.8067	119.797	-184.972	-67.0172	150.45	-210.395	-57.6154	124.37	
28	0.233333	-228.097	-18.3311	122.825	-209.029	-3.49368	101.076	-194.023	-5.66537	74.549	-176.712	-21.4053	64.1532	-231.736	-58.5235	62.6639	-227.129	-59.0142	36.5124	-213.545	-54.2879	7.79526	-214.913	-74.4106	64.7552	-205.108	-78.9998	32.8035	-189.94	-72.2186	10.4375	-190.737	-77.2069	65.8687	-177.7	-60.92	42.5655	-169.914	-31.7716	47.6585	-175.773	-81.3233	85.4096	-163.447	-85.4084	61.8747	-153.611	-87.4411	38.1422	-201.331	-79.1269	118.228	-206.962	-71.7896	151.879	-230.975	-61.038	128.595	
29	0.241667	-229.991	-4.26265	123.836	-209.231	2.59042	96.1887	-195.721	1.18494	69.7162	-182.91	-22.4372	57.7192	-248.209	-42.0366	62.7294	-247.524	-42.4227	33.6904	-237.104	-41.3686	5.69333	-237.747	-67.1026	61.5092	-232.089	-71.4549	32.1216	-216.182	-67.7018	2.5424	-217.726	-72.4952	63.9448	-199.365	-63.7974	40.8533	-179.18	-39.4264	46.2716	-204.753	-80.4717	80.9608	-196.123	-89.6173	56.3734	-187.267	-91.0258	32.2301	-228.837	-65.848	118.813	-227.998	-60.8696	145.871	-248.4	-41.9258	126.329	
30	0.25	-216.373	8.45929	118.787	-192.489	12.8878	91.9134	-183.485	0.201089	71.9869	-183.183	-25.4581	58.2306	-247.897	-7.24062	54.3286	-244.905	-13.0415	31.685	-234.796	-18.4491	1.44897	-247.486	-37.0518	58.8036	-245.156	-44.9056	27.2383	-229.996	-49.2103	1.76247	-235.026	-53.21	57.4243	-210.21	-54.147	36.4678	-185.361	-35.3838	45.0991	-226.57	-68.8665	74.0327	-221.296	-77.6233	53.4505	-213.493	-83.619	24.2528	-243.866	-48.9735	111.313	-240.346	-42.5979	142.396	-248.621	-15.4713	121.196	
31	0.258333	-189.736	17.2909	121.971	-164.275	11.5625	94.58	-163.353	-1.62661	72.4635	-171.792	-23.1972	54.2627	-222.356	17.3461	53.1941	-218.747	18.3974	28.625	-210.818	10.6568	1.29575	-235.067	-4.00713	49.8256	-232.296	-10.3892	21.5995	-220.668	-18.402	-6.3606	-230.713	-28.1175	55.2407	-212.324	-34.6379	33.1344	-178.876	-35.3336	43.3846	-232.273	-47.1741	71.4193	-230.973	-57.0201	45.4837	-226.665	-62.6793	23.7544	-240.354	-19.7617	107.31	-235.671	-17.0202	138.426	-226.94	13.3694	117.306	
32	0.266667	-161.034	14.7092	123.516	-139.458	1.41133	100.673	-137.108	-11.9706	74.417	-156.542	-27.8247	60.1394	-181.358	28.2531	57.7528	-177.34	24.3632	27.8581	-170.787	13.5852	2.70558	-203.778	9.60425	51.0659	-202.68	4.79077	21.2352	-190.374	-7.1272	-5.58579	-208.414	-8.38503	52.4124	-194.593	-24.7655	30.437	-165.838	-38.5175	41.7713	-220.073	-30.6771	66.0352	-216.999	-36.232	41.8094	-212.988	-47.2824	16.9155	-220.633	-1.6432	102.542	-218.111	-0.189161	134.87	-200.214	19.662	117.439	
33	0.275	-136.241	11.2865	129.777	-117.703	-10.4761	106.841	-118.508	-26.5684	79.503	-136.461	-37.5887	67.843	-150.919	19.2841	58.3056	-142.986	13.8929	31.4925	-133.319	1.06451	8.50454	-172.275	9.46016	49.2361	-170.181	1.08985	23.3407	-160.132	-13.4017	-0.312559	-182.166	-8.12421	51.8455	-170.671	-27.0946	33.8575	-145.158	-47.4219	46.7013	-200.183	-26.4294	63.6211	-195.059	-35.3375	43.2277	-195.174	-48.4825	21.4766	-194.904	6.47128	101.946	-198.874	8.29723	129.713	-175.422	24.923	116.206	
34	0.283333	-120.471	1.44559	136.986	-100.304	-24.6839	119.743	-101.075	-40.4974	96.1984	-121.163	-51.7927	79.3437	-123.631	5.76668	65.4307	-113.393	-6.89819	37.23	-107.584	-19.4011	20.1992	-147.257	-2.70999	53.1522	-143.354	-16.1533	27.3206	-131.352	-35.618	5.2316	-162.054	-19.1257	58.7943	-144.751	-39.304	39.9042	-125.337	-62.7072	55.3541	-179.285	-34.0681	74.8453	-175.131	-46.4519	48.8961	-169.475	-60.1127	28.2745	-174.457	0.446148	105.229	-181.955	5.61176	135.82	-155.087	17.5492	119.068	
35	0.291667	-104.015	-6.28959	148.102	-87.2753	-34.8815	129.74	-87.001	-51.7895	110.611	-105.367	-64.4681	94.1373	-100.301	-6.20364	72.7897	-85.5513	-20.6575	48.7617	-80.6503	-37.3855	34.1179	-127.789	-17.0321	60.2911	-117.053	-30.2414	36.6771	-105.132	-51.0149	18.0204	-141.333	-31.3463	65.8397	-124.17	-55.0836	50.4544	-107.363	-74.5927	66.9538	-160.288	-43.1807	76.028	-154.59	-58.6928	56.417	-149.996	-75.9704	41.6104	-158.257	-7.53074	107.015	-167.276	1.62625	136.077	-136.094	10.0739	126.066	
36	0.3	-96.3029	-1.16467	152.365	-79.83	-31.6769	139.655	-75.6345	-51.0884	123.115	-87.9995	-69.2213	102.591	-91.0064	-10.8547	77.7688	-78.0078	-23.5404	59.1386	-67.2851	-44.9538	44.5657	-113.033	-19.3687	68.1851	-101.886	-33.6575	46.2424	-92.1693	-59.7721	30.5694	-127.777	-35.2024	73.7436	-112.058	-58.0877	60.921	-90.1643	-78.114	83.4426	-143.906	-46.8858	82.0142	-136.776	-63.6246	66.4507	-128.482	-87.0346	52.9943	-150.534	-8.96439	112.569	-158.376	3.64224	135.711	-127.968	12.1578	127.108	
37	0.308333	-101.148	13.1739	148.074	-78.3922	-14.2439	140.021	-70.1795	-33.789	127.802	-77.8966	-55.2188	108.871	-90.3928	-2.30029	74.001	-74.2192	-15.1436	57.9033	-58.018	-34.0126	48.3403	-112.83	-16.1712	70.3979	-98.527	-32.7632	49.0106	-82.8981	-56.5769	37.9035	-123.878	-33.9472	75.7117	-98.5731	-55.2958	68.4718	-81.1572	-70.2729	95.0908	-140.976	-44.6607	89.4749	-128.424	-65.1274	74.9019	-111.639	-81.0099	64.7939	-148.735	-1.80989	113.084	-164.742	6.07916	134.236	-130.022	22.9375	121.989	
38	0.316667	-117.281	33.2503	141.264	-83.2163	16.0762	139.005	-68.4227	-3.68072	124.256	-75.5123	-26.3353	112.674	-102.049	16.4325	72.9726	-78.6326	6.99178	54.7174	-60.8544	-12.7883	46.7977	-113.481	-2.49924	66.7789	-95.547	-21.0647	48.5332	-70.7782	-41.7877	40.335	-117.398	-23.4899	73.9692	-91.1332	-39.9557	71.6034	-70.9934	-43.0352	97.4781	-130.133	-40.1558	88.418	-114.127	-57.9084	79.8526	-87.9727	-73.1198	74.1237	-156.192	-2.70921	109.42	-170.046	10.1344	129.639	-146.665	32.2145	115.575	
39	0.325	-138.559	46.3893	133.054	-104.746	41.8804	131.162	-80.3141	25.984	115.721	-79.9282	-2.5159	105.162	-115.324	27.5773	62.4668	-96.7158	24.9973	48.6924	-68.3325	14.9045	40.1926	-120.979	0.683624	60.5367	-96.8614	-7.78609	45.3007	-72.1073	-17.6966	39.497	-118.022	-12.7349	72.4019	-86.5296	-20.0712	72.4233	-66.7676	-12.9886	99.8141	-122.781	-34.3632	87.4469	-101.078	-43.8013	80.7081	-73.7116	-49.3462	76.8259	-162.655	-1.07321	104.109	-178.81	2.0286	127.209	-165.354	33.0513	111.516	
40	0.333333	-156.118	54.3761	126.274	-122.274	56.2156	120.636	-97.2217	48.375	107.02	-87.1275	21.51	99.0185	-132.768	31.0469	56.1354	-112.028	35.0646	41.2363	-86.8333	30.6713	32.6065	-129.624	5.85415	57.2935	-106.762	3.26702	40.7969	-76.8412	6.40128	31.09	-120.166	-9.08885	70.0827	-89.5573	-3.29164	66.9462	-73.8628	16.2135	92.7272	-121.944	-24.5072	87.0146	-97.2805	-31.2597	79.2769	-72.2753	-29.1884	68.7818	-162.985	-10.4161	101.591	-182.277	-5.84907	126.615	-179.495	22.2965	107.147	
41	0.341667	-178.891	47.3424	119.254	-148.401	59.5792	113.075	-119.002	57.5259	94.1169	-106.076	32.617	89.497	-154.583	26.4261	52.1874	-137.083	30.9301	33.5644	-111.181	33.4824	22.5896	-141.358	1.56516	51.6886	-120.57	5.00701	32.601	-91.2942	11.0437	22.3004	-127.352	-8.83678	66.0955	-101.917	7.89914	57.6967	-90.6591	32.3864	77.6447	-120.089	-23.9692	84.3677	-98.4951	-20.7722	71.6904	-73.089	-16.0062	58.9991	-166.203	-16.1135	102.293	-183.28	-14.4196	126.813	-191.381	10.5503	106.515	
42	0.35	-195.151	28.4269	114.1	-173.752	52.149	100.826	-147.81	48.278	82.8957	-129.723	33.5489	79.0887	-178.205	9.58178	47.3265	-160.203	17.7754	24.0631	-138.555	28.3443	8.21758	-156.034	-10.8453	46.777	-137.534	-6.25266	26.0693	-115.485	11.4864	7.79352	-138.483	-14.963	61.5777	-114.966	5.3576	49.7296	-112.795	34.4919	63.549	-125.739	-25.1542	79.9972	-108.234	-19.3396	62.7694	-89.9044	-11.6646	46.1266	-170.795	-28.3846	104.781	-182.588	-29.8052	130.737	-199.376	-10.6657	107.986	
43	0.358333	-212.471	6.33397	115.316	-194.704	27.6989	96.0812	-176.625	33.688	76.3124	-149.902	19.7771	67.0685	-192.294	-19.2432	47.2861	-187.757	-10.7397	23.108	-169.794	0.873711	4.65342	-171.667	-32.9398	50.9747	-159.686	-26.0887	20.3833	-141.771	-9.69527	3.31643	-151.992	-30.2001	55.9009	-136.901	-11.344	40.6898	-134.22	22.4191	52.1293	-138.143	-34.8327	73.4342	-122.348	-29.637	57.3564	-108.889	-22.6969	38.6959	-175.632	-44.3973	103.94	-181.068	-47.5901	135.148	-208.274	-32.9772	112.464	
44	0.366667	-221.191	-12.5931	120.932	-212.351	13.8862	95.2862	-196.211	18.339	67.4409	-173.183	5.03251	61.9536	-212.919	-37.7169	51.848	-207.381	-33.5149	25.8042	-192.594	-19.8894	2.10732	-191.15	-49.5341	52.3205	-179.059	-46.6931	24.7234	-166.686	-28.8975	-1.32676	-166.757	-45.9248	53.8355	-156.594	-27.1311	35.8651	-155.318	7.73518	44.573	-152.45	-47.8367	74.8929	-136.956	-42.6766	50.4539	-128.746	-35.1581	27.0698	-183.551	-57.694	107.928	-190.413	-57.9595	135.456	-217.387	-50.0359	113.556	
45	0.375	-230.98	-18.7918	120.998	-221.989	3.80333	94.3989	-210.358	8.08714	72.3766	-191.774	0.136974	57.644	-229.57	-49.6372	54.3748	-226.909	-44.7366	26.1476	-215.867	-34.91	2.88687	-206.701	-62.0797	50.5986	-195.008	-58.7195	21.5185	-187.236	-45.3009	-2.1129	-187.648	-57.7032	54.8402	-176.174	-40.0131	33.6859	-173.769	-3.45068	41.5389	-164.849	-60.4574	68.2792	-153.117	-56.2318	48.7194	-146.673	-52.3512	26.039	-190.99	-68.2353	109.917	-198.583	-67.195	139.327	-225.493	-57.6229	120.088	
